<?xml version="1.0" standalone="no"?>
<!DOCTYPE svg PUBLIC "-//W3C//DTD SVG 20010904//EN"
 "http://www.w3.org/TR/2001/REC-SVG-20010904/DTD/svg10.dtd">
<svg version="1.0" xmlns="http://www.w3.org/2000/svg"
 width="227.000000pt" height="227.000000pt" viewBox="0 0 227.000000 227.000000"
 preserveAspectRatio="xMidYMid meet">
<metadata>
Created by potrace 1.11, written by Peter Selinger 2001-2013
</metadata>
<g transform="translate(0.000000,227.000000) scale(0.100000,-0.100000)"
fill="#000000" stroke="none">
<path d="M474 2126 c-22 -7 -60 -23 -82 -36 -32 -18 -41 -28 -38 -45 3 -18 -1
-21 -31 -22 -19 -1 -40 -7 -47 -14 -8 -9 -8 -10 3 -4 9 5 12 3 9 -6 -2 -8 -14
-18 -26 -24 -25 -11 -30 -35 -7 -35 8 0 15 4 15 10 0 15 57 41 74 34 9 -3 16
-10 16 -15 0 -14 -41 -31 -61 -26 -16 4 -17 2 -8 -15 7 -13 17 -18 31 -15 16
5 19 2 15 -15 -4 -14 2 -27 16 -40 16 -15 10 -13 -25 6 -49 27 -78 33 -78 16
0 -5 3 -9 8 -9 29 5 66 -25 58 -47 -3 -7 4 -16 14 -19 11 -4 22 -16 25 -28 9
-40 -7 -83 -18 -52 -4 8 -2 15 3 15 5 0 7 7 4 15 -4 9 -19 15 -35 15 -29 0
-40 15 -16 23 9 3 9 7 0 19 -7 8 -9 19 -5 23 4 5 1 5 -6 1 -7 -4 -9 -13 -5
-19 4 -7 0 -6 -10 2 -15 12 -17 11 -18 -5 0 -11 -14 -30 -32 -44 -17 -14 -28
-19 -24 -12 5 6 4 12 -2 12 -6 0 -11 -5 -11 -11 0 -5 -4 -7 -10 -4 -19 12 -29
-5 -20 -35 5 -18 5 -30 -1 -30 -5 0 -9 -5 -9 -10 0 -6 6 -10 12 -9 20 4 88
-12 94 -22 3 -5 -9 -7 -26 -5 -23 3 -33 -2 -41 -16 -9 -17 -8 -18 10 -9 11 6
22 7 25 2 3 -4 19 -11 36 -14 39 -8 41 -36 3 -30 -29 5 -68 6 -90 4 -7 0 -13
-6 -13 -13 0 -9 3 -9 12 0 9 9 16 8 29 -4 9 -8 20 -11 23 -6 9 15 66 1 67 -17
0 -10 2 -11 6 -3 5 14 33 17 33 3 0 -5 -12 -12 -27 -15 -16 -4 -37 -10 -47
-13 -14 -4 -18 -1 -13 10 5 13 2 13 -23 1 -15 -8 -31 -22 -34 -31 -5 -13 -4
-14 9 -3 13 11 14 10 9 -6 -5 -15 -4 -16 5 -8 7 7 21 10 31 7 26 -7 34 -34 13
-39 -12 -3 -19 -16 -20 -36 -2 -26 7 -40 57 -89 33 -32 83 -70 110 -84 97 -49
144 -55 427 -55 l264 0 -1 255 -1 255 -32 14 -32 14 29 11 c19 8 26 16 22 27
-3 9 -6 24 -6 34 0 19 -33 33 -47 19 -5 -5 -18 -6 -31 -3 -23 6 -29 19 -13 28
10 7 2 56 -10 56 -9 0 -13 -22 -10 -47 2 -18 -9 -16 -31 4 -11 9 -18 11 -18 5
0 -7 6 -12 13 -13 6 -1 1 -4 -13 -8 -27 -7 -36 -38 -10 -34 10 2 15 -6 15 -22
0 -18 -7 -27 -28 -34 -15 -6 -34 -8 -42 -4 -9 3 -22 -1 -31 -8 -14 -12 -16
-11 -12 6 2 11 10 19 17 17 9 -2 11 3 8 13 -5 10 0 15 13 15 11 0 20 -5 20
-11 0 -5 -5 -7 -11 -3 -7 4 -10 2 -8 -5 7 -20 24 -14 30 11 8 33 1 47 -22 41
-14 -4 -19 0 -19 14 0 16 -5 19 -23 16 -19 -4 -28 3 -46 32 -20 35 -21 67 0
35 8 -13 10 -13 18 0 7 10 6 17 -2 22 -12 7 -20 88 -9 87 19 -3 22 3 12 21 -9
16 -8 18 6 13 27 -10 12 37 -19 61 -24 18 -44 21 -135 23 -64 1 -123 -3 -148
-11z m99 -46 c-5 -17 -2 -18 26 -10 17 5 31 6 31 3 0 -3 7 0 15 7 8 7 15 9 15
6 0 -14 -25 -31 -50 -35 -14 -1 -28 -8 -31 -13 -12 -19 -26 1 -21 28 4 24 2
26 -19 19 -19 -5 -21 -4 -9 4 26 18 49 13 43 -9z m147 -17 c0 -13 -35 -27 -49
-19 -4 3 -6 16 -4 29 4 22 7 23 29 13 13 -6 24 -16 24 -23z m-236 -21 c-6 -4
-14 -14 -17 -22 -4 -10 -6 -8 -6 7 -1 12 5 23 12 26 16 6 24 -2 11 -11z m-91
-79 c-6 -17 -5 -17 14 0 25 22 32 22 26 -3 -3 -10 -8 -19 -12 -18 -3 0 -15 0
-26 -1 -17 -1 -18 -3 -5 -11 9 -6 10 -10 3 -10 -19 0 -25 18 -13 40 13 25 22
26 13 3z m197 -38 c0 -8 8 -16 18 -19 9 -2 4 -4 -13 -3 -26 2 -30 -1 -31 -26
-1 -19 3 -26 12 -23 7 3 16 1 20 -5 3 -5 13 -9 22 -8 31 3 43 -1 37 -11 -6
-10 -33 -9 -52 3 -6 4 -13 2 -15 -3 -2 -7 -11 -8 -23 -3 -21 8 -34 73 -15 73
5 0 10 5 10 11 0 5 -4 8 -9 4 -5 -3 -13 0 -17 6 -4 7 -3 9 3 6 6 -4 13 0 17 8
6 17 36 9 36 -10z m-60 -25 c0 -5 -2 -10 -4 -10 -3 0 -8 5 -11 10 -3 6 -1 10
4 10 6 0 11 -4 11 -10z m-170 -10 c0 -5 -5 -10 -11 -10 -5 0 -7 5 -4 10 3 6 8
10 11 10 2 0 4 -4 4 -10z m390 -44 c0 -3 -4 -8 -10 -11 -5 -3 -10 -1 -10 4 0
6 5 11 10 11 6 0 10 -2 10 -4z m-367 -44 c-6 -24 -23 -30 -23 -9 0 13 21 39
26 34 2 -2 1 -13 -3 -25z m28 -15 c-10 -9 -11 -8 -5 6 3 10 9 15 12 12 3 -3 0
-11 -7 -18z m533 -6 c16 -18 16 -18 -9 -14 -25 5 -31 14 -18 26 9 9 8 10 27
-12z m-309 -19 c-3 -3 -11 0 -18 7 -9 10 -8 11 6 5 10 -3 15 -9 12 -12z m45 8
c0 -5 -5 -10 -11 -10 -5 0 -7 5 -4 10 3 6 8 10 11 10 2 0 4 -4 4 -10z m-415
-10 c3 -5 -1 -10 -10 -10 -9 0 -13 5 -10 10 3 6 8 10 10 10 2 0 7 -4 10 -10z
m475 -12 c0 -13 -23 -5 -28 10 -2 7 2 10 12 6 9 -3 16 -11 16 -16z m-36 -4 c3
-8 2 -12 -4 -9 -6 3 -10 10 -10 16 0 14 7 11 14 -7z m-194 2 c0 -2 -7 -6 -15
-10 -8 -3 -15 -1 -15 4 0 6 7 10 15 10 8 0 15 -2 15 -4z m-324 -21 c-2 -7 1
-18 7 -24 8 -8 7 -11 -5 -11 -9 0 -19 7 -22 16 -9 24 -7 31 9 31 9 0 14 -6 11
-12z m51 -37 c2 -10 -2 -18 -7 -18 -6 0 -10 11 -10 25 0 14 -5 25 -11 25 -5 0
-7 5 -3 11 8 13 26 -13 31 -43z m373 43 c0 -5 -9 -11 -20 -14 -12 -3 -20 0
-20 7 0 6 9 12 20 13 11 1 20 -2 20 -6z m-165 -11 c3 -5 2 -10 -4 -10 -5 0
-13 5 -16 10 -3 6 -2 10 4 10 5 0 13 -4 16 -10z m173 -31 c11 0 9 -4 -7 -10
-27 -11 -50 9 -28 23 7 4 14 3 15 -2 2 -6 11 -10 20 -11z m303 -23 c-12 -12
-21 -28 -21 -34 0 -7 -5 -12 -11 -12 -6 0 -8 7 -5 16 3 9 6 19 6 24 0 15 31
40 42 34 5 -4 1 -15 -11 -28z m-636 -6 c3 -5 -1 -10 -9 -10 -8 0 -18 5 -21 10
-3 6 1 10 9 10 8 0 18 -4 21 -10z m393 -24 c11 -11 12 -16 4 -16 -14 0 -72 28
-72 34 0 11 54 -3 68 -18z m125 2 c-6 -11 -31 -10 -37 1 -3 5 5 8 18 7 13 0
22 -4 19 -8z m-399 -20 c-3 -4 -9 -8 -15 -8 -5 0 -9 4 -9 8 0 5 7 9 15 9 8 0
12 -4 9 -9z m339 0 c-32 -15 -29 -30 3 -18 32 12 41 13 29 1 -6 -5 -25 -12
-42 -16 -29 -6 -33 -4 -33 13 0 21 9 27 44 29 20 1 20 1 -1 -9z m-183 -9 c0
-15 -18 -19 -23 -6 -3 8 1 14 9 14 8 0 14 -4 14 -8z m17 -11 c-3 -8 -6 -5 -6
6 -1 11 2 17 5 13 3 -3 4 -12 1 -19z m-232 -8 c3 -5 -1 -10 -9 -10 -9 0 -16 5
-16 10 0 6 4 10 9 10 6 0 13 -4 16 -10z m282 -35 c0 -8 -4 -12 -9 -9 -4 3 -8
9 -8 15 0 5 4 9 8 9 5 0 9 -7 9 -15z m144 2 c-1 -4 -3 -7 -6 -7 -40 0 -40 0
-25 10 16 10 32 9 31 -3z m-224 -43 c-3 -3 -12 -4 -19 -1 -8 3 -5 6 6 6 11 1
17 -2 13 -5z m256 -73 c10 -11 8 -13 -10 -8 -12 2 -24 0 -27 -7 -3 -7 -8 -7
-14 3 -8 12 -14 12 -25 3 -12 -10 -16 -10 -20 2 -4 11 3 16 26 18 46 5 56 3
70 -11z m-445 -43 c-2 -6 -10 -14 -16 -16 -7 -2 -10 2 -6 12 7 18 28 22 22 4z
m502 -112 c0 -3 -4 -8 -10 -11 -5 -3 -10 -1 -10 4 0 6 5 11 10 11 6 0 10 -2
10 -4z"/>
<path d="M880 2000 c0 -5 5 -10 11 -10 5 0 7 5 4 10 -3 6 -8 10 -11 10 -2 0
-4 -4 -4 -10z"/>
<path d="M890 1960 c0 -5 5 -10 10 -10 6 0 10 5 10 10 0 6 -4 10 -10 10 -5 0
-10 -4 -10 -10z"/>
<path d="M870 1946 c0 -16 18 -31 27 -22 3 3 -2 12 -11 21 -14 14 -16 14 -16
1z"/>
<path d="M970 1950 c0 -5 5 -10 11 -10 5 0 7 5 4 10 -3 6 -8 10 -11 10 -2 0
-4 -4 -4 -10z"/>
<path d="M800 1915 c0 -8 4 -15 10 -15 5 0 7 7 4 15 -4 8 -8 15 -10 15 -2 0
-4 -7 -4 -15z"/>
<path d="M830 1879 c0 -11 5 -17 10 -14 6 3 10 -1 10 -9 0 -20 13 -27 29 -16
11 6 11 11 -1 29 -8 11 -18 18 -21 14 -4 -3 -7 -1 -7 5 0 7 -4 12 -10 12 -5 0
-10 -9 -10 -21z"/>
<path d="M987 1877 c6 -29 23 -32 31 -6 3 8 1 11 -3 7 -4 -4 -14 0 -21 9 -10
15 -11 14 -7 -10z"/>
<path d="M168 1842 c-6 -27 -3 -62 4 -62 5 0 8 6 6 12 -6 16 19 41 32 33 5 -3
10 -1 10 5 0 6 5 8 12 4 6 -4 8 -3 5 3 -7 11 -66 15 -69 5z"/>
<path d="M210 1460 c0 -5 5 -10 11 -10 5 0 7 5 4 10 -3 6 -8 10 -11 10 -2 0
-4 -4 -4 -10z"/>
<path d="M1190 868 c1 -398 19 -476 143 -602 114 -116 234 -157 392 -132 95
14 71 20 -30 6 -33 -4 -64 -4 -68 0 -7 6 108 25 215 34 57 5 101 31 157 91
114 124 151 239 131 405 -27 211 -198 382 -410 410 -41 5 -177 10 -302 10
l-228 0 0 -222z m589 -183 c47 -29 51 -35 55 -79 1 -23 -3 -37 -11 -41 -22 -8
-4 -26 20 -20 12 2 16 2 9 -1 -6 -3 -10 -9 -8 -13 3 -4 -9 -8 -27 -8 -18 0
-44 -7 -59 -15 -25 -14 -26 -16 -13 -35 13 -19 13 -22 -1 -27 -13 -5 -14 -9
-4 -21 8 -9 8 -15 2 -15 -6 0 -14 9 -17 20 -6 19 -16 24 -42 21 -7 -1 -13 3
-13 10 0 8 -4 8 -15 -1 -12 -10 -16 -9 -20 3 -5 10 -16 13 -40 10 -34 -5 -58
13 -31 23 9 3 16 13 16 21 0 8 -4 12 -9 8 -6 -3 -13 0 -18 8 -4 7 -28 19 -52
27 -25 8 -55 24 -68 36 l-23 21 23 20 c26 24 67 36 82 23 6 -5 17 -5 25 0 11
7 12 10 2 10 -7 0 -10 4 -7 10 3 5 25 8 48 7 23 -2 50 1 59 7 12 7 21 6 32 -3
10 -8 16 -9 16 -3 0 9 16 17 43 21 4 0 25 -10 46 -24z m257 -110 c12 -9 14
-14 6 -15 -7 0 -20 7 -28 15 -20 19 -4 20 22 0z m-672 -61 c18 -7 12 -24 -10
-24 -8 0 -14 7 -14 15 0 17 2 18 24 9z m36 -24 c0 -5 -5 -10 -11 -10 -5 0 -7
5 -4 10 3 6 8 10 11 10 2 0 4 -4 4 -10z m280 -59 c0 -5 -8 -8 -17 -7 -14 1
-17 -5 -15 -28 3 -20 0 -26 -8 -21 -15 9 -5 -29 16 -62 15 -24 6 -31 -14 -11
-8 8 -12 9 -12 1 0 -22 -31 -6 -51 26 -21 35 -18 71 7 71 8 0 22 8 33 19 29
29 61 35 61 12z m-175 -59 c12 -9 27 -25 35 -36 12 -15 5 -14 -39 9 -40 20
-51 29 -40 36 19 12 21 11 44 -9z"/>
</g>
</svg>
